<svg xmlns="http://www.w3.org/2000/svg" xmlns:xlink="http://www.w3.org/1999/xlink" width="500" zoomAndPan="magnify" viewBox="0 0 375 374.999991" height="500" preserveAspectRatio="xMidYMid meet" version="1.0"><defs><clipPath id="fa591005b1"><path d="M 52.660156 52.660156 L 322.660156 52.660156 L 322.660156 322.660156 L 52.660156 322.660156 Z M 52.660156 52.660156 " clip-rule="nonzero"/></clipPath><clipPath id="49dd6ac7eb"><path d="M 101.371094 149.28125 L 273.871094 149.28125 L 273.871094 225.78125 L 101.371094 225.78125 Z M 101.371094 149.28125 " clip-rule="nonzero"/></clipPath></defs><g clip-path="url(#fa591005b1)"><path fill="#5271ff" d="M 187.660156 322.660156 C 151.601562 322.660156 117.699219 308.617188 92.199219 283.117188 C 66.703125 257.621094 52.660156 223.71875 52.660156 187.660156 C 52.660156 151.601562 66.703125 117.699219 92.199219 92.199219 C 117.699219 66.703125 151.601562 52.660156 187.660156 52.660156 C 223.71875 52.660156 257.621094 66.703125 283.117188 92.199219 C 308.617188 117.699219 322.660156 151.601562 322.660156 187.660156 C 322.660156 207.742188 317.027344 226.371094 316.769531 227.214844 C 314.519531 234.574219 311.621094 241.78125 308.144531 248.65625 L 321.375 315.542969 C 321.636719 316.863281 321.230469 318.226562 320.289062 319.1875 C 319.347656 320.148438 317.992188 320.582031 316.667969 320.351562 L 248.167969 308.34375 C 240.921875 311.992188 233.320312 314.992188 225.542969 317.265625 C 224.78125 317.484375 206.796875 322.660156 187.660156 322.660156 Z M 187.660156 322.660156 " fill-opacity="1" fill-rule="nonzero"/></g><g clip-path="url(#49dd6ac7eb)"><path fill="#ffffff" d="M 273.714844 187.515625 C 273.714844 187.714844 273.558594 187.890625 273.417969 188.027344 C 272.996094 188.4375 270.15625 188.933594 268.988281 189.066406 C 268.886719 189.078125 268.789062 189.09375 268.691406 189.113281 C 268.6875 189.109375 268.6875 189.113281 268.6875 189.113281 C 266.207031 189.484375 264.570312 190.742188 262.78125 193.277344 C 261.277344 195.304688 260.15625 197.582031 259.160156 199.890625 C 258.238281 202.011719 257.453125 204.265625 255.875 206.015625 C 254.648438 207.308594 252.90625 208.253906 251.121094 208.449219 C 248.394531 208.667969 245.617188 207.300781 243.925781 205.191406 C 241.605469 202.648438 240.121094 196.222656 239.367188 194.558594 C 238.855469 193.34375 238.304688 192.132812 237.527344 191.066406 C 237.34375 190.859375 237.136719 190.671875 236.925781 190.492188 C 236.921875 190.488281 236.917969 190.484375 236.910156 190.480469 C 236.785156 190.390625 236.542969 190.257812 236.371094 190.175781 C 236.3125 190.15625 236.25 190.140625 236.195312 190.128906 L 236.128906 190.128906 C 236.089844 190.148438 236.050781 190.171875 236.015625 190.195312 C 235.917969 190.289062 235.832031 190.390625 235.746094 190.492188 C 235.683594 190.59375 235.589844 190.742188 235.523438 190.871094 C 234.625 192.601562 234.304688 193.738281 234.199219 195.9375 C 234.003906 199.578125 234.125 203.234375 233.988281 206.886719 C 233.75 212.828125 233.566406 220.308594 227.886719 223.761719 C 226.253906 224.648438 224.324219 224.585938 222.703125 223.710938 C 219.191406 221.964844 217.425781 216.648438 216.378906 213.089844 C 215.371094 208.9375 214.496094 204.75 213.339844 200.632812 C 212.21875 196.523438 211.054688 193.003906 209.03125 190.824219 C 208.28125 190.257812 208.003906 190.050781 206.414062 189.722656 C 206.171875 189.710938 205.871094 189.71875 205.707031 189.71875 C 204.832031 189.914062 205.3125 189.820312 204.210938 190.339844 C 203.296875 190.917969 203.933594 190.417969 203.121094 191.191406 C 203.101562 191.214844 203.085938 191.230469 203.070312 191.25 C 203.007812 191.339844 202.945312 191.433594 202.894531 191.53125 C 202.851562 191.613281 202.820312 191.671875 202.800781 191.71875 C 202.734375 191.871094 202.675781 192.027344 202.621094 192.183594 C 201.734375 195.40625 201.40625 198.75 200.796875 202.03125 C 200.402344 203.863281 200.109375 205.851562 198.9375 207.367188 C 197.703125 208.921875 195.660156 209.878906 193.664062 209.730469 C 193.15625 209.695312 192.671875 209.542969 192.203125 209.339844 L 192.199219 209.335938 C 192.164062 209.320312 192.125 209.304688 192.089844 209.289062 C 192.082031 209.285156 192.078125 209.28125 192.074219 209.28125 C 192.070312 209.28125 192.066406 209.277344 192.0625 209.277344 C 192.03125 209.261719 192.003906 209.25 191.984375 209.242188 C 191.976562 209.238281 191.972656 209.234375 191.96875 209.234375 C 191.957031 209.230469 191.949219 209.230469 191.949219 209.230469 L 191.945312 209.226562 C 190.855469 208.746094 189.875 208 189.046875 207.148438 C 187.652344 205.605469 186.855469 203.652344 186.132812 201.730469 C 184.800781 198.347656 184.078125 194.117188 182.808594 191.804688 C 181.871094 190.203125 181.460938 189.769531 179.816406 189.308594 C 179.757812 189.308594 179.699219 189.300781 179.632812 189.3125 C 179.5625 189.308594 179.496094 189.3125 179.441406 189.316406 C 179.277344 189.347656 179.121094 189.394531 178.964844 189.453125 C 178.820312 189.527344 178.648438 189.644531 178.554688 189.695312 C 178.472656 189.769531 178.382812 189.839844 178.300781 189.917969 C 177.378906 190.976562 177.628906 190.425781 177.152344 191.980469 C 176.613281 194.328125 176.609375 194.90625 176.34375 197.234375 C 175.808594 202.148438 175.324219 207.082031 174.417969 211.949219 C 173.667969 215.425781 172.875 219.0625 170.917969 222.078125 C 170.476562 222.730469 169.878906 223.242188 169.300781 223.757812 C 168.777344 224.207031 168.242188 224.675781 167.589844 224.921875 C 165.777344 225.765625 163.921875 224.917969 162.394531 223.878906 C 160.820312 222.75 160.164062 220.789062 159.207031 219.175781 C 156.875 214.425781 156.148438 209.101562 155.5625 203.902344 C 154.9375 199.164062 154.878906 194.984375 152.492188 191.429688 C 151.363281 189.769531 148.773438 188.871094 147.6875 189.367188 C 146.621094 190.03125 146.34375 190.667969 145.796875 192.882812 C 145.292969 195.347656 144.828125 197.820312 144.101562 200.230469 C 143.539062 201.996094 142.886719 203.796875 141.804688 205.3125 C 140.867188 206.460938 139.527344 207.367188 138.0625 207.683594 C 136.960938 207.945312 135.910156 207.324219 135 206.765625 C 132.121094 204.824219 131.691406 200.980469 131.011719 197.835938 C 130.371094 194.203125 129.007812 190.695312 127.871094 189.828125 C 127.066406 189.304688 127.472656 189.417969 126.675781 189.25 C 126.632812 189.25 126.566406 189.25 126.5 189.253906 C 126.472656 189.265625 126.394531 189.285156 126.3125 189.316406 C 126.277344 189.332031 126.21875 189.363281 126.140625 189.398438 C 125.167969 189.941406 125.007812 190.261719 124.472656 190.90625 C 123.585938 192.265625 122.9375 193.769531 121.878906 195.007812 C 121.039062 196.058594 119.878906 196.828125 118.628906 197.3125 C 115.933594 198.644531 113.457031 196.28125 111.582031 194.585938 C 109.390625 192.355469 107.972656 190.828125 105.484375 189.578125 C 105.410156 189.546875 105.34375 189.519531 105.269531 189.488281 C 105.171875 189.449219 105.078125 189.410156 104.976562 189.371094 C 104.488281 189.199219 103.996094 189.050781 103.496094 188.921875 C 103 188.75 102.421875 188.761719 101.996094 188.441406 C 101.699219 188.242188 101.542969 187.867188 101.558594 187.515625 C 101.539062 187.160156 101.699219 186.789062 101.996094 186.589844 C 102.421875 186.269531 103 186.28125 103.496094 186.109375 C 103.996094 185.980469 104.488281 185.832031 104.976562 185.65625 C 105.078125 185.617188 105.171875 185.582031 105.269531 185.542969 C 105.34375 185.511719 105.410156 185.480469 105.484375 185.449219 C 107.972656 184.203125 109.390625 182.675781 111.582031 180.441406 C 113.457031 178.75 115.933594 176.382812 118.628906 177.71875 C 119.878906 178.199219 121.039062 178.96875 121.878906 180.019531 C 122.9375 181.261719 123.585938 182.765625 124.472656 184.121094 C 125.007812 184.769531 125.167969 185.089844 126.140625 185.628906 C 126.21875 185.667969 126.277344 185.699219 126.3125 185.714844 C 126.394531 185.742188 126.472656 185.761719 126.5 185.773438 C 126.566406 185.777344 126.632812 185.777344 126.675781 185.777344 C 127.472656 185.609375 127.066406 185.726562 127.871094 185.203125 C 129.007812 184.335938 130.371094 180.828125 131.011719 177.191406 C 131.691406 174.050781 132.121094 170.203125 135 168.261719 C 135.910156 167.703125 136.960938 167.082031 138.0625 167.347656 C 139.527344 167.660156 140.867188 168.5625 141.804688 169.71875 C 142.886719 171.234375 143.539062 173.035156 144.101562 174.796875 C 144.828125 177.207031 145.292969 179.683594 145.796875 182.148438 C 146.34375 184.363281 146.621094 185 147.6875 185.660156 C 148.773438 186.160156 151.363281 185.261719 152.492188 183.601562 C 154.878906 180.046875 154.9375 175.859375 155.5625 171.128906 C 156.148438 165.925781 156.875 160.605469 159.207031 155.855469 C 160.164062 154.242188 160.820312 152.28125 162.394531 151.152344 C 163.921875 150.113281 165.777344 149.265625 167.589844 150.105469 C 168.242188 150.355469 168.777344 150.820312 169.300781 151.273438 C 169.878906 151.789062 170.476562 152.300781 170.917969 152.949219 C 172.875 155.96875 173.667969 159.601562 174.417969 163.082031 C 175.324219 167.949219 175.808594 172.878906 176.34375 177.796875 C 176.609375 180.125 176.613281 180.699219 177.152344 183.050781 C 177.628906 184.605469 177.378906 184.054688 178.300781 185.113281 C 178.382812 185.191406 178.472656 185.261719 178.554688 185.335938 C 178.648438 185.386719 178.820312 185.5 178.964844 185.578125 C 179.121094 185.636719 179.277344 185.679688 179.441406 185.714844 C 179.496094 185.71875 179.5625 185.722656 179.632812 185.71875 C 179.699219 185.722656 179.757812 185.722656 179.816406 185.71875 C 181.460938 185.261719 181.871094 184.828125 182.808594 183.226562 C 184.078125 180.914062 184.800781 176.679688 186.132812 173.296875 C 186.855469 171.375 187.652344 169.425781 189.046875 167.882812 C 189.875 167.03125 190.855469 166.285156 191.945312 165.804688 C 191.945312 165.804688 191.949219 165.800781 191.96875 165.796875 C 191.972656 165.796875 191.976562 165.789062 191.984375 165.789062 C 192.003906 165.78125 192.03125 165.769531 192.0625 165.753906 C 192.070312 165.75 192.082031 165.746094 192.089844 165.742188 C 192.109375 165.734375 192.132812 165.722656 192.15625 165.714844 C 192.171875 165.707031 192.1875 165.703125 192.199219 165.695312 C 192.214844 165.6875 192.230469 165.679688 192.242188 165.675781 C 192.695312 165.472656 193.167969 165.339844 193.664062 165.300781 C 195.65625 165.148438 197.703125 166.109375 198.9375 167.664062 C 200.109375 169.179688 200.402344 171.167969 200.796875 173 C 201.40625 176.28125 201.734375 179.625 202.621094 182.847656 C 202.675781 183.003906 202.734375 183.160156 202.800781 183.3125 C 202.820312 183.359375 202.847656 183.417969 202.890625 183.5 C 202.945312 183.597656 203.007812 183.691406 203.070312 183.78125 C 203.085938 183.800781 203.101562 183.816406 203.121094 183.839844 C 203.933594 184.609375 203.296875 184.113281 204.210938 184.691406 C 205.3125 185.210938 204.832031 185.113281 205.707031 185.3125 C 205.871094 185.3125 206.171875 185.320312 206.414062 185.308594 C 208.003906 184.980469 208.277344 184.769531 209.03125 184.203125 C 211.054688 182.027344 212.21875 178.507812 213.339844 174.402344 C 214.496094 170.28125 215.371094 166.09375 216.378906 161.941406 C 217.425781 158.382812 219.191406 153.066406 222.703125 151.320312 C 224.320312 150.445312 226.253906 150.382812 227.882812 151.269531 C 233.566406 154.722656 233.746094 162.199219 233.988281 168.144531 C 234.125 171.796875 234 175.449219 234.195312 179.09375 C 234.300781 181.292969 234.621094 182.429688 235.523438 184.160156 C 235.589844 184.289062 235.683594 184.4375 235.746094 184.539062 C 235.832031 184.640625 235.917969 184.742188 236.011719 184.835938 C 236.050781 184.859375 236.089844 184.878906 236.128906 184.902344 L 236.195312 184.902344 C 236.25 184.890625 236.308594 184.875 236.371094 184.855469 C 236.542969 184.769531 236.78125 184.640625 236.910156 184.550781 C 236.914062 184.546875 236.921875 184.542969 236.921875 184.539062 C 237.136719 184.359375 237.34375 184.167969 237.527344 183.964844 C 238.304688 182.898438 238.855469 181.6875 239.367188 180.472656 C 240.121094 178.808594 241.605469 172.382812 243.925781 169.839844 C 245.617188 167.730469 248.394531 166.363281 251.117188 166.582031 C 252.90625 166.777344 254.644531 167.722656 255.875 169.015625 C 257.449219 170.761719 258.234375 173.015625 259.160156 175.136719 C 260.15625 177.449219 261.277344 179.726562 262.78125 181.753906 C 264.566406 184.285156 266.199219 185.542969 268.667969 185.917969 C 268.769531 185.9375 268.875 185.953125 268.988281 185.964844 C 269.921875 186.0625 273.058594 186.640625 273.417969 187.003906 C 273.558594 187.136719 273.714844 187.3125 273.714844 187.515625 Z M 273.714844 187.515625 " fill-opacity="1" fill-rule="nonzero"/></g></svg>