<svg width="1512" height="814" viewBox="0 0 1512 814" fill="none" xmlns="http://www.w3.org/2000/svg">
<path d="M0.0972866 656.784C-1.55811 671.47 17.2787 702.057 105.478 706.863C198.593 711.937 210.939 727.724 222.7 742.764C224.864 745.532 227.008 748.274 229.633 750.919C246.518 767.941 273.335 784.963 367.693 771.445C462.05 757.928 554.421 753.422 624.941 785.464C681.357 811.096 735.969 814 756.049 814C776.129 814 830.74 811.096 887.156 785.464C957.676 753.422 1050.05 757.928 1144.4 771.445C1238.76 784.963 1265.58 767.941 1282.46 750.919C1285.09 748.274 1287.23 745.532 1289.4 742.764C1301.16 727.724 1313.5 711.937 1406.62 706.863C1494.82 702.057 1513.56 671.484 1511.9 656.799V0H1510.69C1505.04 15.6632 1479.63 37.2961 1406.62 41.2745C1313.5 46.3485 1301.16 62.1361 1289.4 77.1758C1287.23 79.9433 1285.09 82.6855 1282.46 85.3309C1265.58 102.353 1238.76 119.374 1144.4 105.857C1050.05 92.3398 957.676 87.8341 887.156 119.875C830.74 145.508 776.129 148.412 756.049 148.412C735.969 148.412 681.357 145.508 624.941 119.875C554.421 87.8341 462.05 92.3398 367.693 105.857C273.335 119.374 246.518 102.353 229.633 85.3309C227.008 82.6855 224.864 79.9433 222.7 77.1758C210.939 62.1361 198.593 46.3485 105.478 41.2745C32.4705 37.2961 7.05575 15.6632 1.40553 0H0.195001L0.0972866 656.784Z" fill="#F8F8F8"/>
</svg>
